<svg width="24" height="24" viewBox="0 0 24 24" fill="none" xmlns="http://www.w3.org/2000/svg">
<path d="M9.61297 0.57836C11.1867 0.24835 12.8117 0.247555 14.3858 0.576027C14.4907 1.2682 14.7502 1.92783 15.145 2.5059C15.5399 3.08397 16.06 3.56562 16.6666 3.91503C17.2728 4.26565 17.9502 4.4751 18.6484 4.52782C19.3467 4.58054 20.0479 4.47516 20.6998 4.21953C21.7711 5.41893 22.5827 6.82707 23.0833 8.35536C22.5365 8.79237 22.0953 9.34697 21.7923 9.97795C21.4893 10.6089 21.3325 11.3001 21.3333 12C21.3333 13.4747 22.017 14.7895 23.0856 15.6447C22.582 17.1717 21.7695 18.5787 20.6986 19.7782C20.0469 19.5227 19.3459 19.4175 18.6479 19.4702C17.9498 19.5229 17.2726 19.7323 16.6666 20.0827C16.0605 20.432 15.5408 20.9133 15.1462 21.491C14.7515 22.0686 14.492 22.7277 14.387 23.4194C12.8134 23.7501 11.1884 23.7517 9.61414 23.424C9.50978 22.7312 9.25049 22.0709 8.8556 21.4922C8.4607 20.9135 7.94036 20.4313 7.33331 20.0815C6.72706 19.7311 6.04962 19.5218 5.35136 19.4693C4.6531 19.4168 3.95198 19.5224 3.30014 19.7782C2.22867 18.5784 1.41715 17.1699 0.91664 15.6412C1.4631 15.2044 1.90417 14.6502 2.20713 14.0197C2.51009 13.3891 2.66714 12.6984 2.66664 11.9989C2.66721 11.2987 2.50996 10.6075 2.20659 9.97646C1.90321 9.34547 1.4615 8.79097 0.914307 8.35419C1.41792 6.82717 2.23044 5.42014 3.30131 4.22069C3.95307 4.47614 4.65402 4.58142 5.35207 4.52871C6.05011 4.47599 6.7273 4.26663 7.33331 3.91619C7.93944 3.56689 8.45912 3.08555 8.85378 2.50792C9.24843 1.93028 9.50791 1.27117 9.61297 0.579527V0.57836ZM12 15.5C12.9282 15.5 13.8185 15.1313 14.4748 14.4749C15.1312 13.8185 15.5 12.9283 15.5 12C15.5 11.0718 15.1312 10.1815 14.4748 9.52515C13.8185 8.86877 12.9282 8.50003 12 8.50003C11.0717 8.50003 10.1815 8.86877 9.5251 9.52515C8.86872 10.1815 8.49997 11.0718 8.49997 12C8.49997 12.9283 8.86872 13.8185 9.5251 14.4749C10.1815 15.1313 11.0717 15.5 12 15.5Z" fill="#C4C4C4"/>
</svg>
