<svg width="23" height="23" viewBox="0 0 23 23" fill="none" xmlns="http://www.w3.org/2000/svg">
<path d="M4.50008 7.74996H19.5996L20.1412 5.58329H6.66675V3.41663H21.5301C21.6948 3.41663 21.8573 3.45417 22.0052 3.52641C22.1532 3.59864 22.2828 3.70366 22.3841 3.83348C22.4854 3.9633 22.5558 4.11451 22.5899 4.27561C22.624 4.43671 22.6209 4.60347 22.5809 4.76321L19.8726 15.5965C19.8139 15.8308 19.6786 16.0387 19.4882 16.1873C19.2978 16.3359 19.0633 16.4166 18.8217 16.4166H3.41675C3.12943 16.4166 2.85388 16.3025 2.65072 16.0993C2.44755 15.8962 2.33341 15.6206 2.33341 15.3333V2.33329H0.166748V0.166626H3.41675C3.70407 0.166626 3.97962 0.280763 4.18278 0.483927C4.38594 0.687091 4.50008 0.962641 4.50008 1.24996V7.74996ZM4.50008 22.9166C3.92545 22.9166 3.37435 22.6884 2.96802 22.282C2.56169 21.8757 2.33341 21.3246 2.33341 20.75C2.33341 20.1753 2.56169 19.6242 2.96802 19.2179C3.37435 18.8116 3.92545 18.5833 4.50008 18.5833C5.07472 18.5833 5.62582 18.8116 6.03215 19.2179C6.43847 19.6242 6.66675 20.1753 6.66675 20.75C6.66675 21.3246 6.43847 21.8757 6.03215 22.282C5.62582 22.6884 5.07472 22.9166 4.50008 22.9166ZM17.5001 22.9166C16.9254 22.9166 16.3743 22.6884 15.968 22.282C15.5617 21.8757 15.3334 21.3246 15.3334 20.75C15.3334 20.1753 15.5617 19.6242 15.968 19.2179C16.3743 18.8116 16.9254 18.5833 17.5001 18.5833C18.0747 18.5833 18.6258 18.8116 19.0321 19.2179C19.4385 19.6242 19.6667 20.1753 19.6667 20.75C19.6667 21.3246 19.4385 21.8757 19.0321 22.282C18.6258 22.6884 18.0747 22.9166 17.5001 22.9166Z" fill="#C4C4C4"/>
</svg>
