<svg width="23" height="23" viewBox="0 0 23 23" fill="none" xmlns="http://www.w3.org/2000/svg">
<path d="M22.489 5.68897C22.489 5.66466 22.489 5.66466 22.489 5.64035C22.4647 5.59172 22.4647 5.5431 22.4404 5.49448V5.47017C22.4161 5.42154 22.3675 5.37292 22.3432 5.34861L22.3188 5.32429C22.2945 5.29998 22.2459 5.27567 22.2216 5.25136L22.1973 5.22705H22.173L22.1487 5.20273L11.8161 0.0729355C11.6216 -0.0243118 11.3785 -0.0243118 11.1597 0.0729355L7.68312 1.79908L18.0643 7.12337L18.0886 7.14768C18.1129 7.14768 18.1129 7.17199 18.1372 7.17199C18.1615 7.19631 18.1615 7.22062 18.1858 7.24493C18.1858 7.26924 18.1858 7.26924 18.1858 7.29355V7.31787V12.9582C18.1858 13.0555 18.1372 13.1284 18.0643 13.177L15.9735 14.2711C15.8519 14.344 15.706 14.2954 15.6331 14.1738C15.6088 14.1495 15.6088 14.1009 15.6088 14.0522V8.53346L5.10607 3.11192L5.08175 3.0876L0.875806 5.17842L0.851494 5.20273H0.827182L0.80287 5.22705C0.778558 5.25136 0.729935 5.27567 0.705623 5.29998L0.681311 5.32429C0.632687 5.37292 0.608376 5.42154 0.559752 5.47017V5.49448C0.53544 5.5431 0.511128 5.59172 0.511128 5.64035C0.511128 5.66466 0.511128 5.66466 0.511128 5.68897C0.511128 5.7376 0.486816 5.76191 0.486816 5.81053V5.83484V17.1642C0.486816 17.4316 0.632687 17.699 0.900118 17.8206L11.1354 22.9261C11.2813 22.999 11.4515 23.0233 11.6216 22.9747L11.6703 22.9504C11.7189 22.9504 11.7432 22.9261 11.7918 22.9018L22.1 17.7963C22.3432 17.6747 22.5133 17.4316 22.5133 17.1399V5.83484V5.81053C22.489 5.76191 22.489 5.7376 22.489 5.68897Z" fill="#C4C4C4"/>
</svg>
