<svg width="326" height="177" viewBox="0 0 326 177" fill="none" xmlns="http://www.w3.org/2000/svg">
<g opacity="0.8">
<mask id="mask0" mask-type="alpha" maskUnits="userSpaceOnUse" x="0" y="0" width="332" height="213">
<path opacity="1.0" d="M2.34861 75.825C11.2102 84.7 36.3771 97.125 66.1521 75.825C103.371 49.2 124.639 33.225 161.857 22.575C163.63 3.05 177.808 -36 220.344 -36H332L284.147 177H257.563L220.344 155.7C218.572 134.4 213.964 88.605 209.71 75.825C205.456 63.045 211.482 59.85 215.027 59.85C218.572 58.075 228.851 60.915 241.612 86.475C243.384 90.025 245.865 97.125 241.612 97.125C236.295 97.125 236.295 102.45 241.612 102.45C246.929 102.45 252.246 97.125 252.246 91.8C252.246 86.475 246.929 81.15 246.929 75.825C246.929 70.5 262.88 70.5 273.513 54.525C275.286 50.975 280.957 44.94 289.464 49.2C300.098 54.525 310.732 54.525 310.732 43.875C310.732 35.355 289.464 22.575 278.83 17.25C278.83 8.375 277.767 -8.31 273.513 -4.05C268.197 1.275 268.197 1.275 262.88 22.575C258.626 39.615 243.384 33.225 236.295 27.9C225.661 20.8 195.886 9.795 161.857 22.575L151.223 75.825C189.505 88.605 202.621 134.4 204.393 155.7L230.978 177H129.956L151.223 75.825C145.906 70.5 128.892 63.045 103.371 75.825C71.469 91.8 55.5181 97.125 34.2503 97.125C12.9825 97.125 7.6656 91.8 2.34866 86.475L2.34861 86.475C-1.90495 82.215 0.576295 77.6 2.34861 75.825Z" fill="white"/>
</mask>
<g mask="url(#mask0)">
<path d="M-48 0H327V94C327 99.5229 322.523 104 317 104H-38C-43.5229 104 -48 99.5229 -48 94V0Z" fill="white"/>
</g>
</g>
</svg>
