<svg width="45" height="45" viewBox="0 0 45 45" fill="none" xmlns="http://www.w3.org/2000/svg">
<g clip-path="url(#clip0)">
<path d="M10.3125 39.375C9.20447 39.375 8.10729 39.1568 7.08361 38.7327C6.05992 38.3087 5.12978 37.6872 4.34629 36.9037C3.56279 36.1202 2.94129 35.1901 2.51727 34.1664C2.09324 33.1427 1.875 32.0455 1.875 30.9375C1.875 29.8295 2.09324 28.7323 2.51727 27.7086C2.94129 26.6849 3.56279 25.7548 4.34629 24.9713C5.12978 24.1878 6.05992 23.5663 7.08361 23.1423C8.10729 22.7182 9.20447 22.5 10.3125 22.5C12.5503 22.5 14.6964 23.3889 16.2787 24.9713C17.861 26.5536 18.75 28.6997 18.75 30.9375C18.75 33.1753 17.861 35.3214 16.2787 36.9037C14.6964 38.486 12.5503 39.375 10.3125 39.375ZM10.3125 33.75C11.0584 33.75 11.7738 33.4537 12.3012 32.9262C12.8287 32.3988 13.125 31.6834 13.125 30.9375C13.125 30.1916 12.8287 29.4762 12.3012 28.9488C11.7738 28.4213 11.0584 28.125 10.3125 28.125C9.56658 28.125 8.85121 28.4213 8.32376 28.9488C7.79632 29.4762 7.5 30.1916 7.5 30.9375C7.5 31.6834 7.79632 32.3988 8.32376 32.9262C8.85121 33.4537 9.56658 33.75 10.3125 33.75ZM34.6875 39.375C33.5795 39.375 32.4823 39.1568 31.4586 38.7327C30.4349 38.3087 29.5048 37.6872 28.7213 36.9037C27.9378 36.1202 27.3163 35.1901 26.8923 34.1664C26.4682 33.1427 26.25 32.0455 26.25 30.9375C26.25 29.8295 26.4682 28.7323 26.8923 27.7086C27.3163 26.6849 27.9378 25.7548 28.7213 24.9713C29.5048 24.1878 30.4349 23.5663 31.4586 23.1423C32.4823 22.7182 33.5795 22.5 34.6875 22.5C36.9253 22.5 39.0714 23.3889 40.6537 24.9713C42.236 26.5536 43.125 28.6997 43.125 30.9375C43.125 33.1753 42.236 35.3214 40.6537 36.9037C39.0714 38.486 36.9253 39.375 34.6875 39.375ZM34.6875 33.75C35.4334 33.75 36.1488 33.4537 36.6762 32.9262C37.2037 32.3988 37.5 31.6834 37.5 30.9375C37.5 30.1916 37.2037 29.4762 36.6762 28.9488C36.1488 28.4213 35.4334 28.125 34.6875 28.125C33.9416 28.125 33.2262 28.4213 32.6988 28.9488C32.1713 29.4762 31.875 30.1916 31.875 30.9375C31.875 31.6834 32.1713 32.3988 32.6988 32.9262C33.2262 33.4537 33.9416 33.75 34.6875 33.75ZM21.6206 18.3694L24.375 22.5V33.75H20.625V24.375L15.5269 20.1262C15.0732 19.8145 14.6937 19.4067 14.4154 18.9317C14.1371 18.4568 13.9667 17.9264 13.9164 17.3783C13.8661 16.8301 13.9372 16.2776 14.1244 15.7599C14.3117 15.2423 14.6106 14.7722 15 14.3831L20.3025 9.08062C20.6507 8.73224 21.0642 8.45588 21.5193 8.26733C21.9743 8.07878 22.4621 7.98174 22.9547 7.98174C23.4473 7.98174 23.935 8.07878 24.3901 8.26733C24.8452 8.45588 25.2586 8.73224 25.6069 9.08062L28.2581 11.7319C30.2438 13.7247 32.8196 15.0234 35.6025 15.435L35.5837 19.2131C31.8078 18.7784 28.2907 17.0764 25.6069 14.385L21.6187 18.3694H21.6206ZM30 9.375C29.0054 9.375 28.0516 8.97991 27.3483 8.27665C26.6451 7.57339 26.25 6.61956 26.25 5.625C26.25 4.63044 26.6451 3.67661 27.3483 2.97335C28.0516 2.27009 29.0054 1.875 30 1.875C30.9946 1.875 31.9484 2.27009 32.6516 2.97335C33.3549 3.67661 33.75 4.63044 33.75 5.625C33.75 6.61956 33.3549 7.57339 32.6516 8.27665C31.9484 8.97991 30.9946 9.375 30 9.375Z" fill="white"/>
<path d="M14.1641 0.782144L18.808 5.3359C19.6021 6.11462 19.6083 7.39165 18.8219 8.17811L13.7754 13.2246C12.9998 14.0002 11.7441 14.0063 10.9609 13.2383L6.31706 8.68458C5.52293 7.90586 5.51667 6.62883 6.30314 5.84237L11.3496 0.795932C12.1252 0.0202893 13.3809 0.0141381 14.1641 0.782144Z" fill="white"/>
</g>
<defs>
<clipPath id="clip0">
<rect width="45" height="45" fill="white"/>
</clipPath>
</defs>
</svg>
